ffmpeg started on 2025-05-12 at 20:43:22
Report written to "D:\Convert\FFMetrics\reports\ssim_report-6.txt"
Log level: 32
Command line:
ffmpeg -hide_banner -nostdin -i "G:\\\xc0\xed\xe8\xec\xe5\\\xce\xed\xe3\xee\xe8\xed\xe3\xe8\\!_35_\xcb\xe5\xf2\xee_2024\\DreamCast-1\\\xcf\xf0\xe8\xea\xeb\xfe\xf7\xe5\xed\xe8\xff \xe2 \xe4\xf0\xf3\xe3\xee\xec \xec\xe8\xf0\xe5 - \xc2\xee\xf1\xef\xe8\xf2\xfb\xe2\xe0\xf2\xfc \xe4\xe5\xf2\xe5\xe9 \xe1\xf3\xe4\xf3\xf7\xe8 \xe0\xe2\xe0\xed\xf2\xfe\xf0\xe8\xf1\xf2\xee\xec\\[DC] Iseyuru - 04_Telegram_HEVC.mkv" -i "G:\\\xc0\xed\xe8\xec\xe5\\\xce\xed\xe3\xee\xe8\xed\xe3\xe8\\!_35_\xcb\xe5\xf2\xee_2024\\DreamCast-1\\\xcf\xf0\xe8\xea\xeb\xfe\xf7\xe5\xed\xe8\xff \xe2 \xe4\xf0\xf3\xe3\xee\xec \xec\xe8\xf0\xe5 - \xc2\xee\xf1\xef\xe8\xf2\xfb\xe2\xe0\xf2\xfc \xe4\xe5\xf2\xe5\xe9 \xe1\xf3\xe4\xf3\xf7\xe8 \xe0\xe2\xe0\xed\xf2\xfe\xf0\xe8\xf1\xf2\xee\xec\\[DC] Iseyuru - 04_Telegram.mp4" -lavfi "[0:v]settb=AVTB,setpts=PTS-STARTPTS,format=pix_fmts=yuv420p10,fps=24000/1001,scale=1920:1080:flags=bicubic[main];[1:v]settb=AVTB,setpts=PTS-STARTPTS,format=pix_fmts=yuv420p,fps=24000/1001,scale=1920:1080:flags=bicubic[ref];[main][ref]ssim=eof_action=endall:stats_file='D\\:/Convert/FFMetrics/logs/ssim_logfile-6.txt'" -f null -
Input #0, matroska,webm, from 'G:\Аниме\Онгоинги\!_35_Лето_2024\DreamCast-1\Приключения в другом мире - Воспитывать детей будучи авантюристом\[DC] Iseyuru - 04_Telegram_HEVC.mkv':
  Metadata:
    COMPATIBLE_BRANDS: isomiso2avc1mp41
    MAJOR_BRAND     : isom
    MINOR_VERSION   : 512
    ENCODER         : Lavf61.7.100
  Duration: 00:23:56.59, start: -0.021000, bitrate: 987 kb/s
  Stream #0:0: Video: hevc (Main 10), yuv420p10le(tv, bt709, progressive), 1920x1080 [SAR 1:1 DAR 16:9], 23.98 fps, 23.98 tbr, 1k tbn (default)
      Metadata:
        HANDLER_NAME    : VideoHandler
        VENDOR_ID       : [0][0][0][0]
        ENCODER         : Lavc61.19.100 libx265
        BPS             : 789735
        DURATION        : 00:23:56.476708333
        NUMBER_OF_FRAMES: 34441
        NUMBER_OF_BYTES : 141804593
        _STATISTICS_WRITING_APP: mkvpropedit v66.0.0 ('Josie') 64-bit
        _STATISTICS_WRITING_DATE_UTC: 2025-05-10 13:05:47
        _STATISTICS_TAGS: BPS DURATION NUMBER_OF_FRAMES NUMBER_OF_BYTES
  Stream #0:1: Audio: aac (LC), 48000 Hz, stereo, fltp (default)
      Metadata:
        HANDLER_NAME    : SoundHandler
        VENDOR_ID       : [0][0][0][0]
        ENCODER         : Lavc61.19.100 aac
        BPS             : 193365
        DURATION        : 00:23:56.586000000
        NUMBER_OF_FRAMES: 67341
        NUMBER_OF_BYTES : 34723198
        _STATISTICS_WRITING_APP: mkvpropedit v66.0.0 ('Josie') 64-bit
        _STATISTICS_WRITING_DATE_UTC: 2025-05-10 13:05:47
        _STATISTICS_TAGS: BPS DURATION NUMBER_OF_FRAMES NUMBER_OF_BYTES
Input #1, mov,mp4,m4a,3gp,3g2,mj2, from 'G:\Аниме\Онгоинги\!_35_Лето_2024\DreamCast-1\Приключения в другом мире - Воспитывать детей будучи авантюристом\[DC] Iseyuru - 04_Telegram.mp4':
  Metadata:
    major_brand     : isom
    minor_version   : 512
    compatible_brands: isomiso2avc1mp41
    encoder         : Lavf61.1.100
  Duration: 00:23:56.54, start: 0.000000, bitrate: 3525 kb/s
  Stream #1:0[0x1](und): Video: h264 (High) (avc1 / 0x31637661), yuv420p(tv, bt709, progressive), 1920x1080 [SAR 1:1 DAR 16:9], 3377 kb/s, 23.98 fps, 23.98 tbr, 24k tbn (default)
      Metadata:
        handler_name    : VideoHandler
        vendor_id       : [0][0][0][0]
        encoder         : Lavc61.3.100 h264_qsv
  Stream #1:1[0x2](und): Audio: aac (HE-AACv2) (mp4a / 0x6134706D), 48000 Hz, stereo, fltp, 144 kb/s (default)
      Metadata:
        handler_name    : SoundHandler
        vendor_id       : [0][0][0][0]
Stream mapping:
  Stream #0:0 (hevc) -> settb:default
  Stream #1:0 (h264) -> settb:default
  ssim:default -> Stream #0:0 (wrapped_avframe)
  Stream #0:1 -> #0:1 (aac (native) -> pcm_s16le (native))
Output #0, null, to 'pipe:':
  Metadata:
    COMPATIBLE_BRANDS: isomiso2avc1mp41
    MAJOR_BRAND     : isom
    MINOR_VERSION   : 512
    encoder         : Lavf61.7.100
  Stream #0:0: Video: wrapped_avframe, yuv420p10le(tv, bt709, progressive), 1920x1080 [SAR 1:1 DAR 16:9], q=2-31, 200 kb/s, 23.98 fps, 23.98 tbn
      Metadata:
        encoder         : Lavc61.19.100 wrapped_avframe
  Stream #0:1: Audio: pcm_s16le, 48000 Hz, stereo, s16, 1536 kb/s (default)
      Metadata:
        HANDLER_NAME    : SoundHandler
        VENDOR_ID       : [0][0][0][0]
        _STATISTICS_TAGS: BPS DURATION NUMBER_OF_FRAMES NUMBER_OF_BYTES
        BPS             : 193365
        DURATION        : 00:23:56.586000000
        NUMBER_OF_FRAMES: 67341
        NUMBER_OF_BYTES : 34723198
        _STATISTICS_WRITING_APP: mkvpropedit v66.0.0 ('Josie') 64-bit
        _STATISTICS_WRITING_DATE_UTC: 2025-05-10 13:05:47
        encoder         : Lavc61.19.100 pcm_s16le
frame=  155 fps=0.0 q=-0.0 size=N/A time=00:00:06.46 bitrate=N/A speed=12.5x    frame=  389 fps=374 q=-0.0 size=N/A time=00:00:16.22 bitrate=N/A speed=15.6x    frame=  614 fps=397 q=-0.0 size=N/A time=00:00:25.60 bitrate=N/A speed=16.5x    frame=  865 fps=418 q=-0.0 size=N/A time=00:00:36.07 bitrate=N/A speed=17.4x    frame= 1124 fps=434 q=-0.0 size=N/A time=00:00:46.88 bitrate=N/A speed=18.1x    frame= 1346 fps=435 q=-0.0 size=N/A time=00:00:56.13 bitrate=N/A speed=18.1x    frame= 1584 fps=438 q=-0.0 size=N/A time=00:01:06.06 bitrate=N/A speed=18.3x    frame= 1782 fps=431 q=-0.0 size=N/A time=00:01:14.32 bitrate=N/A speed=  18x    frame= 1981 fps=427 q=-0.0 size=N/A time=00:01:22.62 bitrate=N/A speed=17.8x    frame= 2208 fps=428 q=-0.0 size=N/A time=00:01:32.09 bitrate=N/A speed=17.8x    frame= 2418 fps=425 q=-0.0 size=N/A time=00:01:40.85 bitrate=N/A speed=17.7x    frame= 2634 fps=424 q=-0.0 size=N/A time=00:01:49.85 bitrate=N/A speed=17.7x    frame= 2852 fps=424 q=-0.0 size=N/A time=00:01:58.95 bitrate=N/A speed=17.7x    frame= 3056 fps=422 q=-0.0 size=N/A time=00:02:07.46 bitrate=N/A speed=17.6x    frame= 3248 fps=419 q=-0.0 size=N/A time=00:02:15.46 bitrate=N/A speed=17.5x    frame= 3393 fps=410 q=-0.0 size=N/A time=00:02:21.51 bitrate=N/A speed=17.1x    frame= 3547 fps=404 q=-0.0 size=N/A time=00:02:27.93 bitrate=N/A speed=16.8x    frame= 3776 fps=406 q=-0.0 size=N/A time=00:02:37.49 bitrate=N/A speed=16.9x    frame= 4008 fps=408 q=-0.0 size=N/A time=00:02:47.16 bitrate=N/A speed=  17x    frame= 4194 fps=406 q=-0.0 size=N/A time=00:02:54.92 bitrate=N/A speed=16.9x    frame= 4415 fps=407 q=-0.0 size=N/A time=00:03:04.14 bitrate=N/A speed=  17x    frame= 4631 fps=408 q=-0.0 size=N/A time=00:03:13.15 bitrate=N/A speed=  17x    frame= 4831 fps=407 q=-0.0 size=N/A time=00:03:21.49 bitrate=N/A speed=  17x    frame= 5059 fps=408 q=-0.0 size=N/A time=00:03:31.00 bitrate=N/A speed=  17x    frame= 5268 fps=408 q=-0.0 size=N/A time=00:03:39.71 bitrate=N/A speed=  17x    frame= 5472 fps=408 q=-0.0 size=N/A time=00:03:48.22 bitrate=N/A speed=  17x    frame= 5718 fps=410 q=-0.0 size=N/A time=00:03:58.48 bitrate=N/A speed=17.1x    frame= 5961 fps=412 q=-0.0 size=N/A time=00:04:08.62 bitrate=N/A speed=17.2x    frame= 6245 fps=416 q=-0.0 size=N/A time=00:04:20.46 bitrate=N/A speed=17.4x    frame= 6492 fps=419 q=-0.0 size=N/A time=00:04:30.77 bitrate=N/A speed=17.5x    frame= 6710 fps=419 q=-0.0 size=N/A time=00:04:39.86 bitrate=N/A speed=17.5x    frame= 6936 fps=419 q=-0.0 size=N/A time=00:04:49.28 bitrate=N/A speed=17.5x    frame= 7159 fps=420 q=-0.0 size=N/A time=00:04:58.58 bitrate=N/A speed=17.5x    frame= 7366 fps=419 q=-0.0 size=N/A time=00:05:07.22 bitrate=N/A speed=17.5x    frame= 7577 fps=419 q=-0.0 size=N/A time=00:05:16.02 bitrate=N/A speed=17.5x    frame= 7747 fps=417 q=-0.0 size=N/A time=00:05:23.11 bitrate=N/A speed=17.4x    frame= 7973 fps=417 q=-0.0 size=N/A time=00:05:32.54 bitrate=N/A speed=17.4x    frame= 8249 fps=420 q=-0.0 size=N/A time=00:05:44.09 bitrate=N/A speed=17.5x    frame= 8523 fps=423 q=-0.0 size=N/A time=00:05:55.48 bitrate=N/A speed=17.6x    frame= 8748 fps=423 q=-0.0 size=N/A time=00:06:04.86 bitrate=N/A speed=17.6x    frame= 8982 fps=424 q=-0.0 size=N/A time=00:06:14.62 bitrate=N/A speed=17.7x    frame= 9197 fps=424 q=-0.0 size=N/A time=00:06:23.59 bitrate=N/A speed=17.7x    frame= 9392 fps=423 q=-0.0 size=N/A time=00:06:31.72 bitrate=N/A speed=17.6x    frame= 9567 fps=421 q=-0.0 size=N/A time=00:06:39.02 bitrate=N/A speed=17.5x    frame= 9758 fps=419 q=-0.0 size=N/A time=00:06:46.98 bitrate=N/A speed=17.5x    frame= 9932 fps=418 q=-0.0 size=N/A time=00:06:54.24 bitrate=N/A speed=17.4x    frame=10161 fps=418 q=-0.0 size=N/A time=00:07:03.79 bitrate=N/A speed=17.4x    frame=10365 fps=418 q=-0.0 size=N/A time=00:07:12.30 bitrate=N/A speed=17.4x    frame=10609 fps=419 q=-0.0 size=N/A time=00:07:22.48 bitrate=N/A speed=17.5x    frame=10821 fps=419 q=-0.0 size=N/A time=00:07:31.32 bitrate=N/A speed=17.5x    frame=11039 fps=419 q=-0.0 size=N/A time=00:07:40.41 bitrate=N/A speed=17.5x    frame=11232 fps=418 q=-0.0 size=N/A time=00:07:48.46 bitrate=N/A speed=17.4x    frame=11469 fps=419 q=-0.0 size=N/A time=00:07:58.35 bitrate=N/A speed=17.5x    frame=11727 fps=420 q=-0.0 size=N/A time=00:08:09.11 bitrate=N/A speed=17.5x    frame=11996 fps=422 q=-0.0 size=N/A time=00:08:20.33 bitrate=N/A speed=17.6x    frame=12249 fps=423 q=-0.0 size=N/A time=00:08:30.88 bitrate=N/A speed=17.7x    frame=12465 fps=423 q=-0.0 size=N/A time=00:08:39.89 bitrate=N/A speed=17.7x    frame=12666 fps=423 q=-0.0 size=N/A time=00:08:48.27 bitrate=N/A speed=17.6x    frame=12864 fps=422 q=-0.0 size=N/A time=00:08:56.53 bitrate=N/A speed=17.6x    frame=13041 fps=421 q=-0.0 size=N/A time=00:09:03.91 bitrate=N/A speed=17.5x    frame=13230 fps=420 q=-0.0 size=N/A time=00:09:11.80 bitrate=N/A speed=17.5x    frame=13442 fps=420 q=-0.0 size=N/A time=00:09:20.64 bitrate=N/A speed=17.5x    frame=13680 fps=421 q=-0.0 size=N/A time=00:09:30.57 bitrate=N/A speed=17.5x    frame=13916 fps=421 q=-0.0 size=N/A time=00:09:40.41 bitrate=N/A speed=17.6x    frame=14134 fps=421 q=-0.0 size=N/A time=00:09:49.50 bitrate=N/A speed=17.6x    frame=14384 fps=422 q=-0.0 size=N/A time=00:09:59.93 bitrate=N/A speed=17.6x    frame=14640 fps=423 q=-0.0 size=N/A time=00:10:10.61 bitrate=N/A speed=17.6x    frame=14870 fps=423 q=-0.0 size=N/A time=00:10:20.20 bitrate=N/A speed=17.7x    frame=15123 fps=424 q=-0.0 size=N/A time=00:10:30.75 bitrate=N/A speed=17.7x    frame=15376 fps=425 q=-0.0 size=N/A time=00:10:41.30 bitrate=N/A speed=17.7x    frame=15606 fps=426 q=-0.0 size=N/A time=00:10:50.90 bitrate=N/A speed=17.7x    frame=15822 fps=425 q=-0.0 size=N/A time=00:10:59.90 bitrate=N/A speed=17.7x    frame=16045 fps=425 q=-0.0 size=N/A time=00:11:09.21 bitrate=N/A speed=17.7x    frame=16273 fps=426 q=-0.0 size=N/A time=00:11:18.71 bitrate=N/A speed=17.8x    frame=16524 fps=426 q=-0.0 size=N/A time=00:11:29.18 bitrate=N/A speed=17.8x    frame=16751 fps=427 q=-0.0 size=N/A time=00:11:38.65 bitrate=N/A speed=17.8x    frame=16973 fps=427 q=-0.0 size=N/A time=00:11:47.91 bitrate=N/A speed=17.8x    frame=17186 fps=427 q=-0.0 size=N/A time=00:11:56.79 bitrate=N/A speed=17.8x    frame=17409 fps=427 q=-0.0 size=N/A time=00:12:06.10 bitrate=N/A speed=17.8x    frame=17639 fps=427 q=-0.0 size=N/A time=00:12:15.69 bitrate=N/A speed=17.8x    frame=17872 fps=427 q=-0.0 size=N/A time=00:12:25.41 bitrate=N/A speed=17.8x    frame=18116 fps=428 q=-0.0 size=N/A time=00:12:35.58 bitrate=N/A speed=17.8x    frame=18370 fps=428 q=-0.0 size=N/A time=00:12:46.18 bitrate=N/A speed=17.9x    frame=18620 fps=429 q=-0.0 size=N/A time=00:12:56.60 bitrate=N/A speed=17.9x    frame=18865 fps=430 q=-0.0 size=N/A time=00:13:06.82 bitrate=N/A speed=17.9x    frame=19122 fps=430 q=-0.0 size=N/A time=00:13:17.54 bitrate=N/A speed=  18x    frame=19370 fps=431 q=-0.0 size=N/A time=00:13:27.89 bitrate=N/A speed=  18x    frame=19622 fps=432 q=-0.0 size=N/A time=00:13:38.40 bitrate=N/A speed=  18x    frame=19886 fps=433 q=-0.0 size=N/A time=00:13:49.41 bitrate=N/A speed=  18x    frame=20142 fps=433 q=-0.0 size=N/A time=00:14:00.08 bitrate=N/A speed=18.1x    frame=20363 fps=433 q=-0.0 size=N/A time=00:14:09.30 bitrate=N/A speed=18.1x    frame=20625 fps=434 q=-0.0 size=N/A time=00:14:20.23 bitrate=N/A speed=18.1x    frame=20868 fps=434 q=-0.0 size=N/A time=00:14:30.36 bitrate=N/A speed=18.1x    frame=21120 fps=435 q=-0.0 size=N/A time=00:14:40.88 bitrate=N/A speed=18.1x    frame=21350 fps=435 q=-0.0 size=N/A time=00:14:50.47 bitrate=N/A speed=18.1x    frame=21607 fps=436 q=-0.0 size=N/A time=00:15:01.19 bitrate=N/A speed=18.2x    frame=21826 fps=436 q=-0.0 size=N/A time=00:15:10.32 bitrate=N/A speed=18.2x    frame=22091 fps=436 q=-0.0 size=N/A time=00:15:21.37 bitrate=N/A speed=18.2x    frame=22344 fps=437 q=-0.0 size=N/A time=00:15:31.93 bitrate=N/A speed=18.2x    frame=22603 fps=438 q=-0.0 size=N/A time=00:15:42.73 bitrate=N/A speed=18.3x    frame=22861 fps=438 q=-0.0 size=N/A time=00:15:53.49 bitrate=N/A speed=18.3x    frame=23105 fps=439 q=-0.0 size=N/A time=00:16:03.67 bitrate=N/A speed=18.3x    frame=23342 fps=439 q=-0.0 size=N/A time=00:16:13.55 bitrate=N/A speed=18.3x    frame=23580 fps=439 q=-0.0 size=N/A time=00:16:23.48 bitrate=N/A speed=18.3x    frame=23808 fps=439 q=-0.0 size=N/A time=00:16:32.99 bitrate=N/A speed=18.3x    frame=24082 fps=440 q=-0.0 size=N/A time=00:16:44.42 bitrate=N/A speed=18.3x    frame=24340 fps=440 q=-0.0 size=N/A time=00:16:55.18 bitrate=N/A speed=18.4x    frame=24576 fps=441 q=-0.0 size=N/A time=00:17:05.02 bitrate=N/A speed=18.4x    frame=24833 fps=441 q=-0.0 size=N/A time=00:17:15.74 bitrate=N/A speed=18.4x    frame=25076 fps=441 q=-0.0 size=N/A time=00:17:25.87 bitrate=N/A speed=18.4x    frame=25315 fps=442 q=-0.0 size=N/A time=00:17:35.84 bitrate=N/A speed=18.4x    frame=25529 fps=441 q=-0.0 size=N/A time=00:17:44.77 bitrate=N/A speed=18.4x    frame=25789 fps=442 q=-0.0 size=N/A time=00:17:55.61 bitrate=N/A speed=18.4x    frame=26027 fps=442 q=-0.0 size=N/A time=00:18:05.54 bitrate=N/A speed=18.4x    frame=26273 fps=442 q=-0.0 size=N/A time=00:18:15.80 bitrate=N/A speed=18.5x    frame=26504 fps=442 q=-0.0 size=N/A time=00:18:25.43 bitrate=N/A speed=18.5x    frame=26750 fps=443 q=-0.0 size=N/A time=00:18:35.69 bitrate=N/A speed=18.5x    frame=27014 fps=443 q=-0.0 size=N/A time=00:18:46.70 bitrate=N/A speed=18.5x    frame=27249 fps=443 q=-0.0 size=N/A time=00:18:56.51 bitrate=N/A speed=18.5x    frame=27508 fps=444 q=-0.0 size=N/A time=00:19:07.31 bitrate=N/A speed=18.5x    frame=27768 fps=445 q=-0.0 size=N/A time=00:19:18.15 bitrate=N/A speed=18.5x    frame=28041 fps=445 q=-0.0 size=N/A time=00:19:29.54 bitrate=N/A speed=18.6x    frame=28312 fps=446 q=-0.0 size=N/A time=00:19:40.84 bitrate=N/A speed=18.6x    frame=28578 fps=446 q=-0.0 size=N/A time=00:19:51.94 bitrate=N/A speed=18.6x    frame=28833 fps=447 q=-0.0 size=N/A time=00:20:02.57 bitrate=N/A speed=18.6x    frame=29094 fps=447 q=-0.0 size=N/A time=00:20:13.46 bitrate=N/A speed=18.7x    frame=29376 fps=448 q=-0.0 size=N/A time=00:20:25.22 bitrate=N/A speed=18.7x    frame=29620 fps=448 q=-0.0 size=N/A time=00:20:35.40 bitrate=N/A speed=18.7x    frame=29903 fps=449 q=-0.0 size=N/A time=00:20:47.20 bitrate=N/A speed=18.7x    frame=30126 fps=449 q=-0.0 size=N/A time=00:20:56.50 bitrate=N/A speed=18.7x    frame=30400 fps=450 q=-0.0 size=N/A time=00:21:07.93 bitrate=N/A speed=18.7x    frame=30673 fps=450 q=-0.0 size=N/A time=00:21:19.31 bitrate=N/A speed=18.8x    frame=30924 fps=450 q=-0.0 size=N/A time=00:21:29.78 bitrate=N/A speed=18.8x    frame=31172 fps=451 q=-0.0 size=N/A time=00:21:40.13 bitrate=N/A speed=18.8x    frame=31422 fps=451 q=-0.0 size=N/A time=00:21:50.55 bitrate=N/A speed=18.8x    frame=31677 fps=451 q=-0.0 size=N/A time=00:22:01.19 bitrate=N/A speed=18.8x    frame=31914 fps=451 q=-0.0 size=N/A time=00:22:11.07 bitrate=N/A speed=18.8x    frame=32186 fps=452 q=-0.0 size=N/A time=00:22:22.42 bitrate=N/A speed=18.8x    frame=32439 fps=452 q=-0.0 size=N/A time=00:22:32.97 bitrate=N/A speed=18.9x    frame=32698 fps=452 q=-0.0 size=N/A time=00:22:43.77 bitrate=N/A speed=18.9x    frame=32924 fps=452 q=-0.0 size=N/A time=00:22:53.20 bitrate=N/A speed=18.9x    frame=33115 fps=452 q=-0.0 size=N/A time=00:23:01.17 bitrate=N/A speed=18.8x    frame=33325 fps=451 q=-0.0 size=N/A time=00:23:09.93 bitrate=N/A speed=18.8x    frame=33527 fps=451 q=-0.0 size=N/A time=00:23:18.35 bitrate=N/A speed=18.8x    frame=33747 fps=451 q=-0.0 size=N/A time=00:23:27.53 bitrate=N/A speed=18.8x    frame=33924 fps=450 q=-0.0 size=N/A time=00:23:34.91 bitrate=N/A speed=18.8x    frame=34136 fps=450 q=-0.0 size=N/A time=00:23:43.75 bitrate=N/A speed=18.8x    frame=34335 fps=449 q=-0.0 size=N/A time=00:23:52.05 bitrate=N/A speed=18.7x    [Parsed_ssim_10 @ 000001e5cc5a7280] SSIM Y:0.995157 (23.148974) U:0.992570 (21.289870) V:0.993233 (21.696266) All:0.994405 (22.522189)
[out#0/null @ 000001e5c9c24e00] video:14799KiB audio:269364KiB subtitle:0KiB other streams:0KiB global headers:0KiB muxing overhead: unknown
frame=34441 fps=449 q=-0.0 Lsize=N/A time=00:23:56.47 bitrate=N/A speed=18.7x    
